<svg width="47" height="54" viewBox="0 0 47 54" fill="none" xmlns="http://www.w3.org/2000/svg">
<g clip-path="url(#clip0)">
<path d="M12.4529 17.244C12.9442 14.6371 13.4655 12.6252 13.4655 10.3727C13.4551 9.53053 13.3208 8.69448 13.067 7.89142C12.9198 7.23074 12.5757 6.63022 12.0803 6.16907C11.5848 5.70792 10.9612 5.40783 10.2916 5.30837C9.55713 5.17728 8.80254 5.21302 8.0837 5.41296C7.36487 5.61289 6.70019 5.97189 6.13884 6.46341C4.2077 8.06053 3.14389 10.2211 2.32708 12.5073C0.908447 16.6718 0.129798 21.0274 0.017714 25.4254C-0.107693 26.7681 0.0846162 28.1214 0.579092 29.3761C0.743306 29.9076 1.09515 30.3613 1.56907 30.6527C2.043 30.9441 2.60668 31.0533 3.15512 30.9599C4.05191 30.8351 4.91614 30.5382 5.70027 30.0855C8.037 28.6743 9.41449 26.459 10.5113 24.0317C11.4252 21.8541 12.077 19.5755 12.4529 17.244V17.244Z" fill="url(#paint0_linear)"/>
<path d="M22.0313 50.1813C24.2319 46.8517 26.2156 29.27 27.4857 23.7776C28.9253 17.2644 32.7321 11.5178 38.1681 7.65201C39.4888 6.69147 40.8886 5.84473 42.3525 5.1209C40.4129 3.46643 38.2596 2.08027 35.9506 0.999676C34.1951 0.163206 32.2383 -0.158455 30.3074 0.0719981C29.3223 0.155659 28.368 0.456245 27.5128 0.952204C26.6576 1.44816 25.9228 2.12721 25.3609 2.94064C23.1259 6.32786 21.1078 24.2134 19.8173 29.7914C18.2588 36.5321 15.8631 42.4575 10.2037 46.5752C8.9982 47.4437 7.70907 48.1898 6.35547 48.8025C8.02589 50.1106 9.83841 51.2264 11.7587 52.1286C13.5415 52.9911 15.5463 53.285 17.5016 52.9707C18.4102 52.8499 19.2831 52.5391 20.0636 52.0585C20.844 51.5779 21.5145 50.9383 22.0313 50.1813V50.1813Z" fill="url(#paint1_linear)"/>
<path d="M43.8699 22.6422C42.993 22.7653 42.1481 23.0565 41.3816 23.4997C39.0855 24.8877 37.7179 27.0651 36.6548 29.4524C35.7658 31.5956 35.1279 33.8345 34.7538 36.1244C34.271 38.6906 33.7581 40.6687 33.7412 42.877C33.7528 43.7043 33.8847 44.5255 34.1328 45.3148C34.279 45.9645 34.6181 46.5548 35.1055 47.0084C35.593 47.4621 36.2061 47.7579 36.8646 47.8572C37.5871 47.9856 38.3292 47.9504 39.0362 47.754C39.7433 47.5576 40.3973 47.2051 40.95 46.7225C42.8447 45.1492 43.8972 43.0251 44.6979 40.7768C46.0908 36.6817 46.8568 32.3996 46.9701 28.0756C47.0822 26.755 46.8929 25.4262 46.4164 24.1895C46.2481 23.669 45.8983 23.2264 45.4308 22.9424C44.9633 22.6584 44.4094 22.5518 43.8699 22.6422V22.6422Z" fill="url(#paint2_linear)"/>
</g>
<defs>
<linearGradient id="paint0_linear" x1="32.5334" y1="11.8259" x2="6.04247" y2="25.0351" gradientUnits="userSpaceOnUse">
<stop stop-color="#0C0C0C"/>
<stop offset="1" stop-color="#506CF5"/>
</linearGradient>
<linearGradient id="paint1_linear" x1="93.2522" y1="13.5915" x2="30.944" y2="53.832" gradientUnits="userSpaceOnUse">
<stop stop-color="#0C0C0C"/>
<stop offset="1" stop-color="#506CF5"/>
</linearGradient>
<linearGradient id="paint2_linear" x1="65.7514" y1="29.0933" x2="39.7062" y2="42.0853" gradientUnits="userSpaceOnUse">
<stop stop-color="#0C0C0C"/>
<stop offset="1" stop-color="#506CF5"/>
</linearGradient>
<clipPath id="clip0">
<rect width="47" height="53.0938" fill="white"/>
</clipPath>
</defs>
</svg>
