<svg xmlns="http://www.w3.org/2000/svg" xmlns:xlink="http://www.w3.org/1999/xlink" width="42.51" height="48" viewBox="0 0 42.51 48">
  <defs>
    <linearGradient id="linear-gradient" x1="2.414" y1="0.256" x2="1.128" y2="1.481" gradientUnits="objectBoundingBox">
      <stop offset="0" stop-color="#0c0c0c"/>
      <stop offset="1" stop-color="#506cf5"/>
    </linearGradient>
  </defs>
  <g id="logo2" transform="translate(-3.203 -0.018)">
    <path id="Path_6" data-name="Path 6" d="M21.436,28.609a33.687,33.687,0,0,0,.921-6.251,7.808,7.808,0,0,0-.363-2.257,3.045,3.045,0,0,0-2.525-2.35A4.527,4.527,0,0,0,15.692,18.8a12.041,12.041,0,0,0-3.468,5.5,39.57,39.57,0,0,0-2.1,11.752,7.819,7.819,0,0,0,.511,3.594,2.086,2.086,0,0,0,2.343,1.441,6.392,6.392,0,0,0,2.315-.8,11.585,11.585,0,0,0,4.377-5.507,27.109,27.109,0,0,0,1.766-6.175Z" transform="translate(-6.887 -12.904)" fill="url(#linear-gradient)"/>
    <path id="Path_9" data-name="Path 9" d="M42.932,47.555c1.986-3.01,3.776-18.905,4.922-23.871A24.336,24.336,0,0,1,57.493,9.106a26.039,26.039,0,0,1,3.776-2.288,25.656,25.656,0,0,0-5.777-3.726A9.266,9.266,0,0,0,50.4,2.253a6.044,6.044,0,0,0-4.463,2.593c-2.017,3.062-3.838,19.232-5,24.275-1.406,6.094-3.568,11.451-8.675,15.174a20.154,20.154,0,0,1-3.472,2.014,25.473,25.473,0,0,0,4.876,3.007,8.706,8.706,0,0,0,5.182.761,5.887,5.887,0,0,0,4.087-2.522Z" transform="translate(-19.784 -2.17)" fill="url(#linear-gradient)"/>
    <path id="Path_10" data-name="Path 10" d="M117.215,67.575a6.263,6.263,0,0,0-2.264.78,11.311,11.311,0,0,0-4.3,5.415,27.358,27.358,0,0,0-1.729,6.07A34.671,34.671,0,0,0,108,85.983a7.762,7.762,0,0,0,.356,2.218,3.007,3.007,0,0,0,2.485,2.313,4.463,4.463,0,0,0,3.717-1.032,11.872,11.872,0,0,0,3.41-5.409,39.057,39.057,0,0,0,2.067-11.554,7.962,7.962,0,0,0-.5-3.535A2.075,2.075,0,0,0,117.215,67.575Z" transform="translate(-74.351 -47.259)" fill="url(#linear-gradient)"/>
  </g>
</svg>
